# xmcd
#
# Track frame offsets: 
#        150
#        25900
#        39366
#        58748
#        77032
#        94109
#        116151
#        136393
#        154922
#        170044
#        187244
#        212871
#        229336
#        247274
#        262819
#        278621
#
# Disc length: 4027 seconds
#
# Revision: 0
# Processed by: cddbd v1.5.1PL0 Copyright (c) Steve Scherf et al.
# Submitted via: ExactAudioCopy v0.95a3
#
DISCID=eb0fb910
DTITLE=Ladysmith Black Mambazo - The very best of
DYEAR=1900
DGENRE=
TTITLE0=Diamonds on the Soles of Her shoes
TTITLE1=Wimoweh
TTITLE2=Qed'usizi
TTITLE3=New York City
TTITLE4=Aint No Sunshine
TTITLE5=Many Spoil The Broth
TTITLE6=Lord's Work
TTITLE7=Because I Love You
TTITLE8=The Gospel Has Arrived
TTITLE9=Chain Gang
TTITLE10=O Happy Day
TTITLE11=Uniting Nations Together
TTITLE12=The Wonder of The Hammerhead Bird
TTITLE13=Black is Beautiful
TTITLE14=Halleluya
TTITLE15=Mother of Hope
EXTD=
EXTT0=
EXTT1=
EXTT2=
EXTT3=
EXTT4=
EXTT5=
EXTT6=
EXTT7=
EXTT8=
EXTT9=
EXTT10=
EXTT11=
EXTT12=
EXTT13=
EXTT14=
EXTT15=
PLAYORDER=
